<svg xmlns="http://www.w3.org/2000/svg" viewBox="0 0 1080 235.93381">
  <defs>
    <style>
      .e2ad92ea-b679-4d88-88d5-2ab6fcc4d6ae {
        fill: #f5f1e8;
      }
    </style>
  </defs>
  <g id="f3228cb0-efe7-4d43-bdc6-792de714bcdb" data-name="Layer 7">
    <g>
      <g>
        <path class="e2ad92ea-b679-4d88-88d5-2ab6fcc4d6ae" d="M37.82389,23.33994l-.07921-1.26734q1.10665-1.42577,6.24279-1.42576l7.34775.07921,4.26709.07921,1.89649-.07921q10.34947,0,12.48388.31683.07807.9505.07921,1.42576a19.31058,19.31058,0,0,1-.15616,2.05943l-7.548.31684a9.33554,9.33554,0,0,0-1.50271.396,3.59455,3.59455,0,0,0-.31683,1.18813,4.18868,4.18868,0,0,0,.47525,1.505q.6331,1.34769,1.18813,2.85152L67.1883,44.72633l11.874,29.78252q2.05632,5.46542,2.77062,7.04959,2.215,4.99016,5.62043,13.94075,1.18644,3.08915,5.69907,13.38629.23594.63482.94938,2.05943,3.56439-5.7811,10.45557-20.19825a143.44793,143.44793,0,0,0,6.73275-15.28731l-.63254-1.58643L97.05117,42.93281q-2.69028-5.7896-4.19185-9.2018-3.10441-7.139-4.5347-8.171-1.43171-1.032-8.43065-1.428l-1.67131-.38586a2.32445,2.32445,0,0,1-.63593-1.62265,1.74082,1.74082,0,0,1,.71288-1.0829q2.53411-.07638,3.56439-.077l4.99016.155,2.53468-.07808h4.35649l3.88123-.077h4.11886l7.44563-.396q.71289,0,2.13864.07921l1.26734-.07921a2.37147,2.37147,0,0,1,1.66339.51486,1.54567,1.54567,0,0,1,.55446,1.14853,3.19338,3.19338,0,0,1-.31684,1.26734,20.19162,20.19162,0,0,1-4.5149.79209q-4.67445.555-5.4258,1.02971a1.4418,1.4418,0,0,0-.75249,1.26734q0,1.50554,6.11662,15.921l8.10137,18.29724q3.707-7.28664,10.09912-22.97056,2.692-6.494,2.69311-9.58427a4.16848,4.16848,0,0,0-1.34656-3.00994q-1.03028-.95051-4.59411-1.26734L123.211,23.736l-1.42576-.63367-.07921-.63367a3.58506,3.58506,0,0,1,.396-1.34655,2.99956,2.99956,0,0,1,1.42576-.71288q1.18814-.15785,11.01.396h5.3862l3.32677.07921,5.54462-.07921a18.03493,18.03493,0,0,1,1.901.396,1.62919,1.62919,0,0,1-.0396,2.61389,7.37007,7.37007,0,0,1-3.05067.95051q-6.02214,1.03027-9.03094,3.16835a13.95483,13.95483,0,0,0-3.5661,4.27728l-5.7647,12.83183q-2.05293,5.86258-3.3958,8.79218a33.21672,33.21672,0,0,1-2.05377,4.83174l-3.23738,7.52484q.87073,2.06057,2.93073,6.65354l8.15851,18.93092q.55332,1.2679,3.28716,7.04958,2.73271,5.78281,4.55451,10.6932l1.187-3.802.15729-.396,4.82552-12.59421q2.52818-5.7811,5.06031-12.19816l6.09059-15.36651,9.17465-26.13892a89.3093,89.3093,0,0,0,2.29706-8.713l.23762-1.26734a5.48091,5.48091,0,0,0,.23763-1.26735,2.60917,2.60917,0,0,0-1.10893-2.01982q-1.11-.90977-7.84167-2.49508a5.10207,5.10207,0,0,1-1.26734-.71288,6.598,6.598,0,0,1-.23763-1.505l.07921-.55446q3.32677-.15785,4.19807-.15842l6.09908.15842,6.89117-.07921h5.94066l2.37627.15842.07921.79209a12.968,12.968,0,0,1-.15842,1.66338,46.01946,46.01946,0,0,0-7.10673,3.16836,8.01476,8.01476,0,0,0-2.142,2.05943,47.39365,47.39365,0,0,0-2.81813,6.01987q-.23763.47524-4.98054,14.25759a41.00063,41.00063,0,0,0-2.13355,5.46541q-.3174.9505-1.34429,3.406L162.016,60.56809l-.869,2.29706Q155.9302,77.2823,149.68544,93.04372l-8.53758,23.76265-3.39806,9.02981a15.71562,15.71562,0,0,1-1.83086.15841q-.53466,0-1.52477-.07921-1.03537-2.93129-4.54319-11.08923-9.08922-20.75158-16.343-34.45585l-.94654,1.58418q-4.02862,7.68382-9.711,20.35667l-6.15849,12.515a67.81121,67.81121,0,0,1-6.15679,11.08923l-3.62267.07921L74.1055,94.62789,63.51132,69.75632,54.18165,46.15208q-.9505-2.29648-1.66056-4.35648-.55334-1.50384-1.02745-3.08915-.791-2.45433-4.42438-11.16844a6.61636,6.61636,0,0,0-4.5845-2.93073A26.048,26.048,0,0,1,37.82389,23.33994Z"/>
        <path class="e2ad92ea-b679-4d88-88d5-2ab6fcc4d6ae" d="M180.92258,119.02422a4.09989,4.09989,0,0,1,1.97909-.63368h1.8218q.55334,0,1.89988-.0792,6.096-.55334,7.20517-1.10893a12.19182,12.19182,0,0,0,4.75027-5.22778,190.67447,190.67447,0,0,0,9.2697-22.89136q2.456-7.049,3.09027-8.55455,1.9791-4.75253,3.80373-9.98031l7.44676-20.83193q1.74317-4.91038,8.3984-22.49531,1.66338-4.43512,4.04078-11.88132l2.33214-.15842,2.76948.07921a109.57467,109.57467,0,0,1,6.01251,14.49522q1.42407,4.11942,4.66823,12.27737l12.025,32.55483,6.40856,17.66357q5.06823,15.05025,6.65354,18.49526a13.38386,13.38386,0,0,0,2.93073,4.55451,11.81321,11.81321,0,0,0,2.97033.95051q2.57314.6348,3.604.9505a32.7902,32.7902,0,0,1,5.06936,1.7426,4.32944,4.32944,0,0,1,.31684,1.34655,4.58244,4.58244,0,0,1-.23763,1.18813q-2.53581.07977-3.56439.07921-4.03967,0-14.2576-.23763l-7.92088-.17878-9.58427.11994q-.9505,0-1.94061-.08939-.99125-.09-1.703-.08939h-1.74259a3.934,3.934,0,0,1-1.58418-.47526,5.89436,5.89436,0,0,1,.39605-2.13864,5.096,5.096,0,0,1,1.74259-.55446l8.31467-.55559a14.85707,14.85707,0,0,0,4.90925-.87243,7.55967,7.55967,0,0,0,.47525-2.142q0-1.43085-2.05943-7.38227-1.42322-3.96666-2.49112-7.53842-1.06932-3.56949-8.42442-23.48881a34.4054,34.4054,0,0,0-5.703-.55559l-16.95069.15841-4.99016-.07921a49.46574,49.46574,0,0,0-5.94066.39605q-1.03282,2.37627-1.34768,3.406l-6.98056,21.78243q-4.43684,12.43635-4.4357,13.70313a7.18877,7.18877,0,0,0,.71288,2.37626,34.50572,34.50572,0,0,0,4.4357.8713l10.7724.95051q.87073.71287.8713,1.26734a4.58244,4.58244,0,0,1-.23763,1.18813q-3.5644.07977-5.46541.07921-6.33784,0-14.73284-.396-3.88181-.15786-5.54462-.15842-1.6634,0-5.78225.15842-2.69367.15954-3.88123.15841-1.901,0-4.911-.23762v-.47526A5.12379,5.12379,0,0,1,180.92258,119.02422Zm37.79619-47.52531q8.47477.47526,19.327.47526,6.17829,0,10.85161-.39605a53.41051,53.41051,0,0,0-1.82067-5.78q-5.14208-13.77725-5.694-15.20131l-7.19952-18.29045-.79095-1.42576q-.477.9505-3.49028,8.15512-5.07672,12.35318-7.29683,19.23982-1.032,3.08915-2.1426,6.13643a41.6875,41.6875,0,0,0-1.38729,4.27614,13.8188,13.8188,0,0,1-.83282,2.49395Z"/>
        <path class="e2ad92ea-b679-4d88-88d5-2ab6fcc4d6ae" d="M400.55228,14.87534q0,4.81407-4.11321,9.08413a25.01938,25.01938,0,0,1-3.34827,2.92,35.27346,35.27346,0,0,1-8.31919,3.56893c-.52164.15049-1.04329.27808-1.57625.40538a55.43374,55.43374,0,0,1-12.49124,1.2167,130.586,130.586,0,0,1-13.788-.811l-1.12477-.22037c-.05771,1.37908-.08034,2.67669-.08034,3.8702l.63707,49.23367c0,1.95815-.11655,5.65466-.32476,11.10055l.08147,10.54439-.08147,5.86287a6.45514,6.45514,0,0,0,.95051,3.963c.63706.79944,2.35137,1.56409,5.15649,2.30583q7.28155,1.80723,9.7325,2.213a6.94544,6.94544,0,0,1,2.45661.63735v2.37542l-11.23973-.27836q-9.281-.08656-13.95094-.359l-11.56336.55616-8.47082.475a32.91126,32.91126,0,0,1-4.35649-.1621l-1.11232-.475a3.74323,3.74323,0,0,1,.71854-2.3293,6.22713,6.22713,0,0,1,2.93186-.834,64.42582,64.42582,0,0,0,7.83262-1.70355c3.0122-.82264,4.99355-1.64528,5.94406-2.49112a4.14633,4.14633,0,0,0,1.11232-2.37542q.71287-3.49353.70722-13.70737V85.997L342.559,56.61189l-.31231-6.33812-.08147-21.14649H329.408q-11.40268,0-13.85815,1.3788c-1.57626.88091-3.62664,2.78108-6.16471,5.72425a15.50548,15.50548,0,0,1,.32475,3.14006,10.65828,10.65828,0,0,1-2.10922,6.56981,7.03517,7.03517,0,0,1-6.00176,2.83879,6.55721,6.55721,0,0,1-5.27192-2.18984,8.84189,8.84189,0,0,1-1.86593-5.92115q0-8.20362,8.30788-12.58345a1.3029,1.3029,0,0,1,.12786-.06959q6.98622-3.73668,18.33006-3.731a201.85612,201.85612,0,0,1,25.79379,2.271q6.01365.81684,12.40976,1.54118a105.88221,105.88221,0,0,0,11.92319.72985,52.97023,52.97023,0,0,0,10.05726-.811,31.62974,31.62974,0,0,0,7.94918-2.7576c-.27837-.27836-.54541-.568-.8-.85772a12.22935,12.22935,0,0,1-3.25549-8.22669,10.10731,10.10731,0,0,1,2.02775-6.24533,6.97353,6.97353,0,0,1,5.9203-2.67669,6.72738,6.72738,0,0,1,5.43485,2.18984A8.04308,8.04308,0,0,1,400.55228,14.87534Z"/>
        <path class="e2ad92ea-b679-4d88-88d5-2ab6fcc4d6ae" d="M414.6837,120.34927a3.80488,3.80488,0,0,1,1.34655-.8498,24.71724,24.71724,0,0,1,4.59411-.6348q7.68213-.47526,9.50506-1.428a7.67468,7.67468,0,0,0,1.10892-4.44361l-.0792-5.55367.0792-20.15186-.15841-9.5209.07921-19.91537-.39605-22.61186q-.07977-8.09118-1.02971-9.12486-1.42577-1.50723-8.47535-1.74486a37.0962,37.0962,0,0,1-5.307-.47525,1.62871,1.62871,0,0,1-1.02972-1.42576,3.74514,3.74514,0,0,1,.39605-1.505,2.68288,2.68288,0,0,1,1.26734-.396q1.10837,0,2.6931.07921a95.50733,95.50733,0,0,0,9.66348.47525l5.86145-.15842,13.94076.31684q10.45557,0,16.317-.23763,5.86089-.23762,7.92088-.23762,1.82124,0,9.02981.31683l11.24765-.07921,1.34656.23763,6.57433-.23763.79209.396a4.3083,4.3083,0,0,1,.55446,1.34655,24.61183,24.61183,0,0,1-.35644,3.406,27.22986,27.22986,0,0,0-.35644,2.85152q0,8.23884.55446,13.94075a.76107.76107,0,0,1-.46677.63367,4.80014,4.80014,0,0,1-1.55305-.23762,42.18428,42.18428,0,0,1-2.3378-5.307,61.55117,61.55117,0,0,0-4.40005-8.79218q-1.98247-3.32676-3.09141-3.96044-1.11-.63311-4.59694-.63367-.71457,0-7.21253-.15842-1.74486-.07808-3.40881-.07921l-22.59036.47526h-1.98135q-4.36129,0-5.23174,1.10892-1.34769,1.901-1.34768,11.16845,0,.9505.396,19.01012v11.01a7.20457,7.20457,0,0,0,1.901.23762H447.793q1.346,0,3.96044.07921,4.11774.15955,5.54462.15842a15.17646,15.17646,0,0,0,1.66339-.07921q8.55455-.3157,22.02006-.31684,4.1975-.71287,4.91094-1.66338,1.18813-1.42577,1.7822-7.44563.59408-6.01875,2.6535-6.812a4.55038,4.55038,0,0,1,1.901.396,4.94021,4.94021,0,0,1,.15842,1.18813,16.81367,16.81367,0,0,1-.15842,1.82181q-.39717,2.93128-.396,18.37645,0,4.11942.43564,9.18822.43452,5.06994.43565,5.46541a10.22327,10.22327,0,0,1-.23762,1.901,2.46577,2.46577,0,0,1-1.02972.31683h-.55446a29.11974,29.11974,0,0,1-2.45547-6.89117q-2.06056-7.99953-4.31689-10.01992-2.25744-2.01983-7.32681-2.01982-1.11006,0-4.03965.11881-2.9313.11881-8.713.11882h-5.14857a133.44393,133.44393,0,0,0-14.416.47638l-.07921,2.61729.07921,14.59932-.07921,9.20406.07921,8.96644q.07807,8.09289,1.02972,9.36136,1.346,1.74656,5.86145,1.746l4.83174-.07921q.63311,0,4.95055.11881,4.31633.11881,10.65359.11881,15.28617,0,20.35667-1.31034a17.649,17.649,0,0,0,8.35653-4.65069q3.286-3.33694,8.27733-14.38432,1.50383-3.25889,3.00993-3.25888a2.78678,2.78678,0,0,1,1.58418.63367,87.92831,87.92831,0,0,0-2.61389,10.29715,88.32613,88.32613,0,0,0-1.02972,11.32686,7.21549,7.21549,0,0,1-1.26734,4.35649h-1.74259l-22.25769.23763-9.98031-.07921-23.76265.31683h-9.66348q-1.82294,0-3.406.07921-14.25759.63311-20.99034.63367a2.51589,2.51589,0,0,1-1.62378-.38586,1.47029,1.47029,0,0,1-.43565-1.15984Z"/>
        <path class="e2ad92ea-b679-4d88-88d5-2ab6fcc4d6ae" d="M533.85622,119.10342q11.51046-1.34429,13.00779-1.89988a4.15482,4.15482,0,0,0,1.89253-2.374v-.8713q0-1.97739.63084-14.32435.15615-3.48292.15728-6.80517l-.23762-9.41906.15842-10.68414-.07921-19.86558.07921-14.24514q.07808-9.023-1.38616-11.001-1.46649-1.97909-7.56444-2.80965-6.10022-.83169-6.73275-1.2266a1.38,1.38,0,0,1-.63367-1.26735,5.679,5.679,0,0,1,.23762-1.42575q.791-.71289,3.64361-.79209.39547,0,2.17824-.198a30.72782,30.72782,0,0,1,3.36638-.198h6.49512l20.83193-.23762q17.66244,0,24.75276,2.61389a22.81586,22.81586,0,0,1,11.28726,8.83178,24.29375,24.29375,0,0,1,4.19807,13.90115q0,14.575-15.26864,22.25769a40.11761,40.11761,0,0,0-4.11377,2.37626q2.68773,5.69795,7.5124,13.68842l10.042,17.24829q6.02043,9.52374,8.31806,11.94243a19.01077,19.01077,0,0,0,5.58535,4.008q3.28858,1.587,11.0536,3.01446c.05205.52844.07921.95051.07921,1.26734a11.307,11.307,0,0,1-.07921,1.18813q-10.85276.15786-25.426.15842-1.03027,0-2.85152-.15842-5.625-10.78993-13.22787-23.72078L580.04007,76.65541a14.25538,14.25538,0,0,0-3.92084-4.163,8.60653,8.60653,0,0,0-4.07926-.83283l-6.73275.077-2.21784-.077q-.23763,2.53583-.23763,10.37636v27.08716a14.5913,14.5913,0,0,0,.63367,4.19807,5.04883,5.04883,0,0,0,2.17824,2.41587q1.54458.91146,8.911,2.7327l3.24756.79209a3.33176,3.33176,0,0,1,.63367,2.13864,19.3897,19.3897,0,0,1-3.006.396q-7.11777,0-10.04142-.15841-1.503-.07979-2.45152-.07921l-10.75373.15842-10.5161-.07921q-.71287,0-7.19443.23762l-1.58191-.31683-.15842-.79209Q532.75239,120.05394,533.85622,119.10342Zm29.39157-51.80258q2.13864.07979,3.16836.07921a75.06715,75.06715,0,0,0,13.14866-1.34428,21.50234,21.50234,0,0,0,8.47535-3.35959,17.54362,17.54362,0,0,0,5.42581-6.91833,21.87841,21.87841,0,0,0,2.17824-9.48808,23.21033,23.21033,0,0,0-3.406-11.38571q-2.6139-4.58449-8.83179-7.66741A33.29988,33.29988,0,0,0,568.47558,24.132q-2.13864,0-5.54462.23762-.3174,4.11264-.31684,6.32426l.39605,14.7849-.07921,6.08776Q562.931,57.73468,563.24779,67.30084Z"/>
        <path class="e2ad92ea-b679-4d88-88d5-2ab6fcc4d6ae" d="M705.87123,23.81519q.63311,5.22778.63367,6.01987l-.31684,7.04959a51.68413,51.68413,0,0,1-.396,5.78225,3.06235,3.06235,0,0,1-1.18813.31683l-.71288-.15842q-2.53583-11.08866-8.59416-16.1586a22.2588,22.2588,0,0,0-14.77245-5.06936q-9.0298,0-14.812,5.06936-5.78282,5.06994-5.78225,11.80212a13.4513,13.4513,0,0,0,4.03965,9.42585q4.03965,4.27728,20.67351,12.80015,12.67228,6.54831,18.13882,10.71243a28.07451,28.07451,0,0,1,8.23772,9.63405,26.62287,26.62287,0,0,1,2.77231,12.20948,30.8484,30.8484,0,0,1-4.39609,15.93682A28.46363,28.46363,0,0,1,697.5543,120.407q-7.4462,3.76467-19.723,3.76581a62.1848,62.1848,0,0,1-20.51509-3.406q-5.78281-2.05887-7.04959-3.32677a3.78228,3.78228,0,0,1-1.26734-2.6931,19.52844,19.52844,0,0,1,.15842-2.21785,152.63585,152.63585,0,0,0,1.18813-15.36651q.15786-3.72225.55446-4.35649a1.248,1.248,0,0,1,1.18814-.55446,1.43233,1.43233,0,0,1,1.14852.51486,3.8155,3.8155,0,0,1,.59407,1.94061q.87074,9.74269,9.02981,17.426,8.0793,7.68383,18.29724,7.68325a25.56938,25.56938,0,0,0,11.52489-2.61389,19.50644,19.50644,0,0,0,8.23771-7.56444,18.68424,18.68424,0,0,0,2.97034-9.62388,17.678,17.678,0,0,0-4.51491-11.7229q-4.51489-5.30586-18.13882-12.39619-13.62449-7.08805-17.74278-10.33675a39.09227,39.09227,0,0,1-9.98031-11.24765,22.34178,22.34178,0,0,1-2.45548-10.6932q0-11.00889,8.713-18.65368,8.71241-7.64308,23.36661-7.64365a47.25164,47.25164,0,0,1,13.94076,1.8218A33.21542,33.21542,0,0,1,705.87123,23.81519Z"/>
        <path class="e2ad92ea-b679-4d88-88d5-2ab6fcc4d6ae" d="M736.17653,119.02422a12.15807,12.15807,0,0,1,3.5644-.8713q12.11895-.79266,13.86154-2.89339,1.74147-2.09959,1.7426-20.33517l-.07921-8.32258v-8.7209l-.31684-9.59106.15842-5.62835-.07921-6.184V49.18465l-.15842-3.24982.15842-4.12339q.07808-1.42576.07921-3.329,0-4.99356-.47525-10.54383a10.8037,10.8037,0,0,0-.8713-2.1409q-2.93129-1.50553-9.46546-2.021-6.53472-.516-7.406-1.14966-.6348-.47526-.71288-2.45547h6.66486l21.02372.47525q8.09034,0,21.57932-.47525a16.87375,16.87375,0,0,1-.15842,2.37626,51.67443,51.67443,0,0,1-5.307.8713q-7.526.87243-9.18823,1.66452a2.7054,2.7054,0,0,0-1.505,1.34768,13.28453,13.28453,0,0,0-.9505,5.31265l-.39605,10.22586.31684,35.27735V91.19928q-.15956,6.58226-.15842,8.95852a86.9046,86.9046,0,0,0,.43565,11.33705,6.54293,6.54293,0,0,0,1.505,3.52706,7.66975,7.66975,0,0,0,3.52479,1.70412,31.3365,31.3365,0,0,0,5.703.95164q4.43513.15954,5.62382,1.26734a7.97783,7.97783,0,0,1,.23763,1.74259v.63367q-7.21961.23763-10.63152.23763-1.98249,0-7.06034-.23763l-10.94836.15842-18.64519-.07921H736.335Z"/>
        <path class="e2ad92ea-b679-4d88-88d5-2ab6fcc4d6ae" d="M804.26445,120.05393a23.04839,23.04839,0,0,1,6.812-1.66339q5.62326-.6348,8.39613-2.69536,2.13864-4.35874,2.13864-22.19771V80.97342l.15842-7.53163-.15842-5.54914.15842-10.22586L821.532,31.90355q0-4.35876-1.26734-5.7087-1.82294-1.98078-9.66348-3.647a11.75963,11.75963,0,0,1-3.96044-1.30694,3.27359,3.27359,0,0,1-.8713-2.25746,14.25265,14.25265,0,0,1,2.53469-.396h5.62382l2.93073-.07921a37.42424,37.42424,0,0,1,6.49513.63367q7.28664.47526,14.97047.47525,2.21671,0,6.3367-.23762,10.93083-.63311,15.68335-.63367a82.91475,82.91475,0,0,1,18.09922,1.901,63.60523,63.60523,0,0,1,17.54476,7.04959A45.33235,45.33235,0,0,1,907.51317,37.954a51.013,51.013,0,0,1,8.95059,15.28731A53.69749,53.69749,0,0,1,919.5133,71.895a52.66789,52.66789,0,0,1-3.36637,18.37645,48.49049,48.49049,0,0,1-9.38625,15.80216,46.99316,46.99316,0,0,1-12.19816,10.05952q-6.17829,3.36752-18.8517,5.82185-5.22779.95051-18.7725.95051-8.95173,0-14.57442-.55446a33.601,33.601,0,0,0-4.75253-.31684,5.28462,5.28462,0,0,0-.8713.07921l-32.31721.63367-.15841-.63367a2.31352,2.31352,0,0,1-.15842-.8713Zm40.31729-3.16835A37.42969,37.42969,0,0,0,856.7799,118.945a50.47785,50.47785,0,0,0,15.68335-2.49508,44.5223,44.5223,0,0,0,13.58432-7.04959,42.99791,42.99791,0,0,0,9.70308-10.29715,47.13582,47.13582,0,0,0,5.3862-10.33675q2.21671-6.73163,2.21785-17.50515a54.81544,54.81544,0,0,0-4.35648-20.91114q-3.01107-7.36641-10.57438-14.09917a47.08,47.08,0,0,0-17.8616-9.8615,76.23843,76.23843,0,0,0-22.25768-3.12875q-8.23886,0-12.19816,1.8218a10.37854,10.37854,0,0,0-.95051,1.10893,15.70523,15.70523,0,0,0-.47525,3.6436q0,1.03029.07921,2.45548.23763,9.18936.23762,14.73284l-.0792,17.98041q0,39.60555,1.46536,44.07972Q837.84842,113.55937,844.58174,116.88558Z"/>
        <path class="e2ad92ea-b679-4d88-88d5-2ab6fcc4d6ae" d="M943.56111,120.34927a3.80488,3.80488,0,0,1,1.34655-.8498,24.71724,24.71724,0,0,1,4.59411-.6348q7.68213-.47526,9.50506-1.428a7.67468,7.67468,0,0,0,1.10892-4.44361l-.0792-5.55367.0792-20.15186-.15841-9.5209.07921-19.91537-.39605-22.61186q-.07977-8.09118-1.02971-9.12486-1.42576-1.50723-8.47535-1.74486a37.0962,37.0962,0,0,1-5.307-.47525,1.62869,1.62869,0,0,1-1.02972-1.42576,3.74514,3.74514,0,0,1,.39605-1.505,2.68288,2.68288,0,0,1,1.26734-.396q1.10835,0,2.6931.07921a95.50733,95.50733,0,0,0,9.66348.47525l5.86145-.15842,13.94076.31684q10.45557,0,16.317-.23763,5.86089-.23762,7.92088-.23762,1.82124,0,9.02981.31683l11.24765-.07921,1.34655.23763,6.57434-.23763.79209.396a4.3083,4.3083,0,0,1,.55446,1.34655,24.61183,24.61183,0,0,1-.35644,3.406,27.22986,27.22986,0,0,0-.35644,2.85152q0,8.23884.55446,13.94075a.76109.76109,0,0,1-.46677.63367,4.80014,4.80014,0,0,1-1.553-.23762,42.18428,42.18428,0,0,1-2.3378-5.307,61.55223,61.55223,0,0,0-4.40005-8.79218q-1.98247-3.32676-3.09141-3.96044-1.11-.63311-4.59694-.63367-.71457,0-7.21253-.15842-1.74486-.07808-3.40881-.07921l-22.59036.47526h-1.98135q-4.36129,0-5.23174,1.10892-1.34769,1.901-1.34769,11.16845,0,.9505.396,19.01012v11.01a7.20457,7.20457,0,0,0,1.901.23762h1.34655q1.346,0,3.96044.07921,4.11774.15955,5.54462.15842a15.17659,15.17659,0,0,0,1.66339-.07921q8.55455-.3157,22.02-.31684,4.19751-.71287,4.911-1.66338,1.18813-1.42577,1.7822-7.44563.59407-6.01875,2.6535-6.812a4.55038,4.55038,0,0,1,1.901.396,4.94021,4.94021,0,0,1,.15842,1.18813,16.81367,16.81367,0,0,1-.15842,1.82181q-.39717,2.93128-.396,18.37645,0,4.11942.43564,9.18822.43452,5.06994.43565,5.46541a10.22327,10.22327,0,0,1-.23762,1.901,2.46577,2.46577,0,0,1-1.02972.31683H1019.76a29.11974,29.11974,0,0,1-2.45547-6.89117q-2.06056-7.99953-4.31689-10.01992-2.25744-2.01983-7.32681-2.01982-1.11006,0-4.03965.11881-2.9313.11881-8.713.11882h-5.14857a133.44393,133.44393,0,0,0-14.416.47638l-.07921,2.61729.07921,14.59932-.07921,9.20406.07921,8.96644q.07808,8.09289,1.02972,9.36136,1.346,1.74656,5.86145,1.746l4.83174-.07921q.6331,0,4.95055.11881,4.31631.11881,10.65359.11881,15.28617,0,20.35667-1.31034a17.649,17.649,0,0,0,8.35653-4.65069q3.286-3.33694,8.27733-14.38432,1.50383-3.25889,3.00993-3.25888a2.78678,2.78678,0,0,1,1.58418.63367,87.92831,87.92831,0,0,0-2.61389,10.29715,88.32613,88.32613,0,0,0-1.02972,11.32686,7.21549,7.21549,0,0,1-1.26734,4.35649h-1.74259l-22.25769.23763-9.98031-.07921-23.76265.31683h-9.66348q-1.82294,0-3.406.07921-14.25759.63311-20.99034.63367a2.51589,2.51589,0,0,1-1.62378-.38586,1.47029,1.47029,0,0,1-.43565-1.15984Z"/>
      </g>
      <g>
        <path class="e2ad92ea-b679-4d88-88d5-2ab6fcc4d6ae" d="M160.48614,188.46066c7.39527.07115,14.70354-.85284,22.08883-1.10882,7.38341-.20485,14.77137-.11275,22.13886.03935,10.5661.10628,22.51461-.11054,33.17119-.14522,11.10767.37236,22.02684-1.88148,33.13848-1.67664,7.38292-.15493,14.70487,1.56355,22.05472,1.62663,3.64338.06332,7.33451.00646,10.98357-.14051,10.58186-.82821,22.51327-.9957,33.2009-1.001,11.00917-.18907,22.20569-.19969,33.2225.24983,12.81277.15516,31.44588-.25932,44.26863.18852,18.32624.97962,36.83146.92929,55.14075.73983a191.91929,191.91929,0,0,1,22.1957-.29364c7.40079.4192,14.65936,1.51927,22.07065,1.6415l0,.34953c-7.35746.40269-14.77138-.38554-22.11271-.39755-11.06638-.31207-22.06614,1.588-33.13152,1.58915-10.85218.10618-22.42149.4696-33.22724.38706-12.7023-.69507-31.2649-.63864-44.18772-.741-7.33387.02612-14.85275-.31033-22.157-.6754-10.57087-.31417-22.46281-.20583-33.135-.28-11.09453-.292-22.08,1.09129-33.19407.65333a91.61512,91.61512,0,0,1-11.1189-1.04957,108.507,108.507,0,0,0-21.86481-.5982,160.30635,160.30635,0,0,1-22.148.99965c-10.64911-.13516-22.5728-.10268-33.19273-.37837-7.37337-.269-14.73631-.47651-22.09925-.38867-7.36045.13917-14.73148.948-22.10589.75948v-.34926Z"/>
        <path class="e2ad92ea-b679-4d88-88d5-2ab6fcc4d6ae" d="M540.1012,187.70674c11.27418-.185,22.55933.27913,33.82632.41828,22.14152-.04094,45.46151-.34918,67.62192-.69832,11.2399-.43242,22.55742-1.35243,33.82975-1.291,11.28878-.03567,22.5151-.49507,33.80812-.74134,11.29163-.19413,22.69711-.26034,33.94231.967,5.59811.61083,11.15415,1.01679,16.77159,1.16689,11.25011.29684,22.503.2124,33.774.00792,5.64928-.00394,11.294.0623,16.93192.28432v.29111c-5.63677.22458-11.269.39942-16.88985.75221-16.91192,1.0041-33.89365,1.89186-50.85262.39661-16.755-1.55471-33.68652-.91647-50.54787-.79845-11.26846.15749-22.54419-.22114-33.8013.21393-5.61062.21122-11.26218.55635-16.91828.6422-27.98619.001-56.64884.31386-84.59138-.96123-5.63109-.21144-11.26673-.30952-16.90464-.359v-.29111Z"/>
        <path class="e2ad92ea-b679-4d88-88d5-2ab6fcc4d6ae" d="M160.48614,225.29185c39.04925.08879,86.6076-.75146,125.64772-.99843,13.9671-.25579,27.8778,1.49618,41.84641,1.23778,13.95935-.15961,27.91823.42256,41.87722.2607,13.97084.08468,27.87987-1.59181,41.85221-1.36165,6.99565.05822,14.03906.32346,21.00969.90567,13.88949,1.1266,27.84267,1.03355,41.77147,1.14915,6.98427.071,13.96969.152,20.95055.37688v.29111c-6.98086.22174-13.956.38151-20.93236.66039-13.97621.36945-27.98822.96185-41.958.02787-6.95585-.44662-13.87531-.574-20.84139-.50007-6.96722.01166-13.881.21464-20.82888.7255-13.974.95615-28.00884.61648-41.99549.20075-13.95943-.58744-27.9681-.05934-41.90224-1.24433-6.94675-.5686-13.87758-.80882-20.85048-.83753-38.78269-.38991-87.42685.57879-125.64647-.89379Z"/>
        <path class="e2ad92ea-b679-4d88-88d5-2ab6fcc4d6ae" d="M518.90844,225.07353c14.89506-1.07712,29.75935,1.15956,44.65411,1.05047,32.77259.08621,65.59765.24777,98.35411.98625v.23243c-32.80328.13964-65.58051.69839-98.37571,1.20132a238.79814,238.79814,0,0,1-26.82044-1.96474c-5.92-.62566-11.86353-.92781-17.81207-1.2729v-.23283Z"/>
        <path class="e2ad92ea-b679-4d88-88d5-2ab6fcc4d6ae" d="M688.70753,225.8229c18.89137-.90024,38.66219-.9779,57.56287-1.249,18.62725-.10224,38.9185.89773,57.44687-.0776,19.20077-1.08067,38.457-.13282,57.62764.38255,19.17454.58166,38.35634-.03746,57.53784.21248v.34923c-19.18994.21629-38.36014,1.30078-57.56058,1.18447-9.6156-.03114-19.188-.34555-28.76607-.25856-9.59514.02473-19.13.1953-28.67511.91965-14.40128,1.10316-28.83823,1.05451-43.25315.99192-18.652-.25036-38.88793-.52052-57.53783-1.43153l-14.38248-.67421v-.34938Z"/>
        <path class="e2ad92ea-b679-4d88-88d5-2ab6fcc4d6ae" d="M160.48614,206.91691c26.59926-1.91206,53.21041-1.80456,79.8393-1.22254,19.88332.222,59.9585.83463,79.83936,1.22261l0,.34931c-19.91624.38718-59.93046,1.00091-79.83944,1.22236-26.62876.58212-53.23992.68935-79.83917-1.22249v-.34925Z"/>
        <path class="e2ad92ea-b679-4d88-88d5-2ab6fcc4d6ae" d="M717.65214,206.677c16.79059-.17642,33.53414-1.05525,50.33864-.89407,8.39917.14533,16.73467.79517,25.12724.72487,20.79335-.09674,42.04064-1.132,62.863-1.17353,16.57716-.13312,33.78641.38444,50.3022.20576,4.2063.09479,8.4046.21021,12.59949.47459v.34939c-8.39774.45485-16.7136,1.04161-25.10906,1.65055-16.52408.899-33.81388.94723-50.35112.93578-20.99524-.48858-41.97331.59551-62.94379-.70542-12.54894-.96273-25.07481-1.07173-37.66187-1.10249-8.383.01843-16.77955.01757-25.16477-.11633v-.3491Z"/>
        <path class="e2ad92ea-b679-4d88-88d5-2ab6fcc4d6ae" d="M466.83909,205.89719c9.24834-.16195,18.51888.03719,27.75971.27013,18.46476.08683,37.02208-.11041,55.48871-.00342,18.44718-.407,37.00805.832,55.45574.23963,9.27292-.13528,18.35105-1.42966,27.64714-1.77259,13.94468-.54985,27.87837.70327,41.69185,2.32642,4.58722.47581,9.20285.68788,13.82529.96478v.34938c-4.627.259-9.26536.33631-13.9151.27718-13.83169-.68756-27.6281-1.285-41.4508-.42763-9.18933.47652-18.48033,1.8054-27.73357,1.74-18.56583.12938-36.96148-1.50615-55.52851-1.42655-23.14442-.54586-46.25207-.653-69.37312-1.86323-4.619-.1752-9.24262-.26276-13.86734-.32473v-.34938Z"/>
        <path class="e2ad92ea-b679-4d88-88d5-2ab6fcc4d6ae" d="M344.36636,206.7796c28.37367-.46088,56.99628-2.4623,85.35894-.28111l6.08709.35218c2.02865.16,4.06071.25273,6.09276.43837v.23283c-16.24688,1.36959-32.50417.22062-48.76484-.07059q-12.19065-.17769-24.37788-.16139-12.19917-.02559-24.39607-.27746v-.23283Z"/>
        <path class="e2ad92ea-b679-4d88-88d5-2ab6fcc4d6ae" d="M831.69188,188.39442c14.64989-.24755,29.25788-1.34176,43.91042-1.47112,14.64454-.32891,29.28611-1.10092,43.91155.23059l0,.23275a387.889,387.889,0,0,1-43.91156,1.3997c-7.31518-.11986-14.62013-.14544-21.93759-.0215-7.32428.08557-14.65424.02161-21.97283-.13731v-.23311Z"/>
      </g>
    </g>
  </g>
</svg>
